<?xml version="1.0" encoding="utf-8"?>
<!-- Generator: Adobe Illustrator 24.0.1, SVG Export Plug-In . SVG Version: 6.00 Build 0)  -->
<svg version="1.1" id="Laag_1" xmlns="http://www.w3.org/2000/svg" xmlns:xlink="http://www.w3.org/1999/xlink" x="0px" y="0px"
	 viewBox="0 0 30 69.3" style="enable-background:new 0 0 30 69.3;" xml:space="preserve">
<style type="text/css">
	.st0{fill:#003643;}
</style>
<path class="st0" d="M30,24.9c0-0.4-0.3-0.8-0.7-0.8c0,0,0,0,0,0H0.8c-0.4,0-0.8,0.3-0.8,0.7c0,0,0,0,0,0V27l15,7.5L30,27V24.9z"/>
<path class="st0" d="M30,30.3l-15,7.5L0,30.3v14.1c0,0.4,0.3,0.8,0.7,0.8c0,0,0,0,0,0h28.5c0.4,0,0.8-0.3,0.8-0.7c0,0,0,0,0,0V30.3z
	"/>
</svg>
