<?xml version="1.0" encoding="utf-8"?>
<!-- Generator: Adobe Illustrator 24.0.1, SVG Export Plug-In . SVG Version: 6.00 Build 0)  -->
<svg version="1.1" id="Laag_1" xmlns="http://www.w3.org/2000/svg" xmlns:xlink="http://www.w3.org/1999/xlink" x="0px" y="0px"
	 viewBox="0 0 26 26" style="enable-background:new 0 0 26 26;" xml:space="preserve">
<style type="text/css">
	.st0{fill:#003643;}
</style>
<path class="st0" d="M20.6,0H5.4C2.4,0,0,2.4,0,5.4v15.2c0,3,2.4,5.4,5.4,5.4h15.2c3,0,5.4-2.4,5.4-5.4V5.4C26,2.4,23.6,0,20.6,0z
	 M8.7,20.6H5.4V8.7h3.2V20.6z M7,7.3c-1,0-1.9-0.9-1.9-1.9S6,3.5,7,3.5s1.9,0.9,1.9,1.9S8.1,7.3,7,7.3z M21.7,20.6h-3.2v-6.1
	c0-3.6-4.3-3.4-4.3,0v6.1h-3.2V8.7h3.2v1.9c1.5-2.8,7.6-3,7.6,2.7V20.6z"/>
</svg>
